<?xml version="1.0" encoding="UTF-8" standalone="no" ?>
<!DOCTYPE svg PUBLIC "-//W3C//DTD SVG 1.1//EN" "http://www.w3.org/Graphics/SVG/1.1/DTD/svg11.dtd">
<svg xmlns="http://www.w3.org/2000/svg" xmlns:xlink="http://www.w3.org/1999/xlink" version="1.1" width="1080" height="1080" viewBox="0 0 1080 1080" xml:space="preserve">
<desc>Created with Fabric.js 5.2.4</desc>
<defs>
</defs>
<rect x="0" y="0" width="100%" height="100%" fill="transparent"></rect>
<g transform="matrix(1 0 0 1 540 540)" id="452f052b-52eb-4a19-9fad-1e990f8fc587"  >
<rect style="stroke: none; stroke-width: 1; stroke-dasharray: none; stroke-linecap: butt; stroke-dashoffset: 0; stroke-linejoin: miter; stroke-miterlimit: 4; fill: rgb(255,255,255); fill-rule: nonzero; opacity: 1; visibility: hidden;" vector-effect="non-scaling-stroke"  x="-540" y="-540" rx="0" ry="0" width="1080" height="1080" />
</g>
<g transform="matrix(Infinity NaN NaN Infinity 0 0)" id="be56df36-e11d-4077-a3f7-9521ee7cf768"  >
</g>
<g transform="matrix(1.92 0 0 1.92 559.84 491.65)"  >
<path style="stroke: rgb(0,0,0); stroke-width: 0; stroke-dasharray: none; stroke-linecap: butt; stroke-dashoffset: 0; stroke-linejoin: miter; stroke-miterlimit: 4; fill: rgb(3,54,49); fill-rule: nonzero; opacity: 1;" vector-effect="non-scaling-stroke"  transform=" translate(-500, -446)" d="M 501 643 C 501 643 501 539 501 539 C 501 536.51 501.2 533.32 499.98 531.09 C 497.91 527.31 482.52 519.51 478 517.08 C 478 517.08 420 483.99 420 483.99 C 416.2 481.86 403.76 475.17 402.02 471.95 C 400.81 469.69 401.01 466.51 401 464 C 401 464 401 314 401 314 C 401.03 301.43 407.16 300.92 417 295.42 C 417 295.42 444 279.97 444 279.97 C 444 279.97 485 256.49 485 256.49 C 488.03 254.92 496.6 249.35 499 249.04 C 502.22 248.62 505.32 251.3 508 252.85 C 508 252.85 524 261.63 524 261.63 C 524 261.63 534 267.15 534 267.15 C 534 267.15 581 294.26 581 294.26 C 585.54 297 596.19 301.41 598.26 306.18 C 599.14 308.21 599 311.75 599 314 C 599 314 599 578 599 578 C 598.99 580.56 599.19 583.65 597.98 585.96 C 595.57 590.55 581.15 597.85 576 600.85 C 576 600.85 525.09 629.51 525.09 629.51 C 525.09 629.51 517.96 633.97 517.96 633.97 C 517.96 633.97 501 643 501 643 Z M 372 321 C 373.69 325.25 373 332.29 373 337 C 373 337 373 369 373 369 C 373 369 373 481 373 481 C 373 483.49 372.8 486.68 374.02 488.91 C 376.08 492.67 391.47 500.41 396 502.93 C 396 502.93 454 536.01 454 536.01 C 458.7 538.63 470.63 544.34 472.4 549.02 C 473.11 550.89 473 553.96 473 556 C 473 556 473 602 473 602 C 473 608.86 473.75 620.84 472 627 C 472 627 435 606.58 435 606.58 C 435 606.58 340 552.33 340 552.33 C 340 552.33 313 537.05 313 537.05 C 309.87 535.17 304.8 532.74 302.74 529.82 C 300.71 526.95 301.01 523.33 301 520 C 301 520 301 372 301 372 C 301 369.17 300.79 365.63 302.17 363.09 C 304.3 359.21 316.68 352.82 321 350.46 C 321 350.46 358 329.07 358 329.07 C 363.9 325.47 365.85 325.76 372 321 Z M 627 321 C 627 321 641 328.46 641 328.46 C 641 328.46 677 349.42 677 349.42 C 681.31 351.84 695.68 359.35 697.75 362.92 C 699.25 365.53 699 370.97 699 374 C 699 374 699 520 699 520 C 698.98 532.42 696.24 531.25 684 538.74 C 684 538.74 648 559.1 648 559.1 C 641.83 562.54 633.72 568.36 627 570 C 627 570 627 321 627 321 Z" stroke-linecap="round" />
</g>
<g transform="matrix(NaN NaN NaN NaN 0 0)"  >
<g style=""   >
</g>
</g>
<g transform="matrix(NaN NaN NaN NaN 0 0)"  >
<g style=""   >
</g>
</g>
<g transform="matrix(1.92 0 0 1.9 560.74 544.94)" id="Selection"  >
<path style="stroke: rgb(0,0,0); stroke-width: 0; stroke-dasharray: none; stroke-linecap: butt; stroke-dashoffset: 0; stroke-linejoin: miter; stroke-miterlimit: 4; fill: rgb(191,156,66); fill-rule: nonzero; opacity: 1;" vector-effect="non-scaling-stroke"  transform=" translate(-500, -474)" d="M 372 321 C 373.69 325.25 373 332.29 373 337 C 373 337 373 369 373 369 C 373 369 373 481 373 481 C 373 483.49 372.8 486.68 374.02 488.91 C 376.08 492.67 391.47 500.41 396 502.93 C 396 502.93 454 536.01 454 536.01 C 458.7 538.63 470.63 544.34 472.4 549.02 C 473.11 550.89 473 553.96 473 556 C 473 556 473 602 473 602 C 473 608.86 473.75 620.84 472 627 C 472 627 435 606.58 435 606.58 C 435 606.58 340 552.33 340 552.33 C 340 552.33 313 537.05 313 537.05 C 309.87 535.17 304.8 532.74 302.74 529.82 C 300.71 526.95 301.01 523.33 301 520 C 301 520 301 372 301 372 C 301 369.17 300.79 365.63 302.17 363.09 C 304.3 359.21 316.68 352.82 321 350.46 C 321 350.46 358 329.07 358 329.07 C 363.9 325.47 365.85 325.76 372 321 Z M 627 321 C 627 321 641 328.46 641 328.46 C 641 328.46 677 349.42 677 349.42 C 681.31 351.84 695.68 359.35 697.75 362.92 C 699.25 365.53 699 370.97 699 374 C 699 374 699 520 699 520 C 698.98 532.42 696.24 531.25 684 538.74 C 684 538.74 648 559.1 648 559.1 C 641.83 562.54 633.72 568.36 627 570 C 627 570 627 321 627 321 Z" stroke-linecap="round" />
</g>
<g transform="matrix(NaN NaN NaN NaN 0 0)"  >
<g style=""   >
</g>
</g>
<g transform="matrix(11.69 0 0 11.28 561.16 505.51)" id="24a563e1-635a-49db-bd6c-092a21cf3bc1"  >
<path style="stroke: rgb(0,0,0); stroke-width: 0; stroke-dasharray: none; stroke-linecap: butt; stroke-dashoffset: 0; stroke-linejoin: miter; stroke-miterlimit: 4; fill: rgb(191,156,66); fill-rule: nonzero; opacity: 1;" vector-effect="non-scaling-stroke"  transform=" translate(-50, -50)" d="M 50 92.875 C 26.358 92.875 7.125 73.642 7.125 50 C 7.125 26.358000000000004 26.358 7.125 50 7.125 C 73.642 7.125 92.875 26.358 92.875 50 C 92.875 73.642 73.642 92.875 50 92.875 z M 50 9.125 C 27.461 9.125 9.125 27.461 9.125 50 C 9.125 72.538 27.461 90.875 50 90.875 C 72.538 90.875 90.875 72.538 90.875 50 C 90.875 27.461 72.538 9.125 50 9.125 z" stroke-linecap="round" />
</g>
<g transform="matrix(NaN NaN NaN NaN 0 0)"  >
<g style=""   >
</g>
</g>
</svg>